<svg width="300" height="272" viewBox="0 0 300 272" fill="none" xmlns="http://www.w3.org/2000/svg">
<path d="M176.882 1.86903C169.275 3.45773 159.071 10.2798 151.89 18.5972L148.583 22.4288L144.331 22.4755C142.016 22.4755 131.386 22.6624 120.708 22.8493L101.338 23.2231L95.7164 24.7184C83.4329 27.9425 72.2361 35.0917 57.2597 49.2966C41.5746 64.2024 20.0313 90.1824 11.9526 103.967C7.79512 111.022 4.3463 120.601 2.64552 129.666C-0.614327 146.909 0.472287 170.926 5.24394 187.327C10.1101 204.008 16.677 215.363 28.3463 227.232C36.2361 235.269 44.3148 240.969 56.1258 246.717C62.1731 249.66 62.362 249.801 63.3069 251.95C63.8266 253.165 64.2518 255.174 64.2518 256.389C64.2518 259.8 66.0943 263.024 69.7794 266.108C71.4329 267.557 73.5117 269.052 74.3148 269.473C76.6298 270.641 82.5353 270.828 85.3699 269.846C86.5983 269.379 89.3384 268.865 91.4644 268.725C95.7164 268.351 100.063 266.529 103.464 263.678L105.26 262.136L109.181 262.884C112.488 263.492 116.031 263.585 130.866 263.398C149.386 263.211 148.488 263.258 170.031 260.221C194.693 256.763 222.614 248.492 241.606 239.053C267.874 225.923 283.181 207.373 292.866 176.86C297.401 162.469 298.724 154.385 298.771 140.881C298.771 119.2 294.897 102.191 284.409 78.0335C274.252 54.6701 261.779 35.4188 250.016 25.0922C237.968 14.4852 220.771 7.14914 198.189 3.03719C191.055 1.72885 180.283 1.1214 176.882 1.86903ZM195.496 27.1481C206.173 29.1574 216.756 32.4283 223.512 35.7926C235.275 41.5867 245.575 54.0627 256.205 75.37C267.921 98.8268 272.976 115.835 274.205 135.974C274.866 146.348 272.882 158.964 268.63 171.72C259.37 199.476 246.189 212.559 216.142 223.821C197.055 230.97 174.425 235.97 149.055 238.586C141.968 239.334 118.016 239.848 117.496 239.24C117.401 239.1 117.165 237.418 117.023 235.456L116.693 231.904L121.842 229.475C124.63 228.166 127.086 227.091 127.228 227.091C127.748 227.091 139.748 221.765 147.165 218.213C154.677 214.662 162.614 211.204 165.354 210.317C169.701 208.915 172.913 204.336 172.913 199.523C172.913 196.065 172.016 193.775 169.701 191.392C167.291 188.916 164.787 187.841 161.197 187.841C157.228 187.841 152.929 189.477 136.299 197.42C132.142 199.383 125.149 202.56 120.708 204.429C110.409 208.775 102.945 212.513 94.9605 217.279C91.4644 219.382 88.4408 221.11 88.2046 221.157C88.0156 221.204 86.8345 218.961 85.5117 216.204C81.4487 207.466 76.1101 200.364 71.6219 197.7C69.3069 196.345 68.362 196.065 65.2912 195.878C61.8896 195.691 61.4644 195.785 58.5825 197.28C54.8502 199.196 52.7243 201.766 51.9683 205.317C50.8345 210.737 53.5274 216.111 58.5825 218.681C60.2833 219.522 62.2203 221.765 61.7006 222.279C61.2754 222.699 55.5117 218.914 50.8345 215.223C44.2676 209.99 38.1258 202.607 34.4408 195.551C27.8739 183.122 24.2361 162.702 25.5117 146.067C27.2597 123.872 29.9998 118.078 51.9211 90.93C67.4644 71.7254 85.2754 54.9505 94.7242 50.6516C102.189 47.2873 109.701 46.7266 139.181 47.3341C152.315 47.6144 157.795 47.5677 159.212 47.1939C162.094 46.3995 165.638 42.895 168.378 38.0822C171.779 32.0544 177.165 26.7276 180.472 26.0267C182.551 25.5594 190.346 26.1669 195.496 27.1481Z" fill="currentColor"/>
<path d="M73.4643 85.9303C72.3777 86.3975 70.3462 88.1264 68.8344 89.7151C65.7162 93.1262 64.7241 95.6961 64.7241 100.416C64.7241 105.929 67.7005 109.667 72.8973 110.742C75.0233 111.163 75.9682 111.069 80.0785 109.994C85.6533 108.593 86.1257 108.359 88.4879 106.116C90.8501 103.92 91.606 102.425 92.1729 98.9203C92.8816 94.6682 92.0785 91.958 89.3383 89.2479C85.5115 85.463 77.9997 83.8743 73.4643 85.9303Z" fill="currentColor"/>
<path d="M165.732 92.5655C159.59 93.4533 155.244 94.8084 153.921 96.2569C150.945 99.481 151.228 103.733 154.724 106.864C160.677 112.237 170.834 112.097 176.74 106.537C181.606 101.911 180.52 96.3971 174.094 93.0327C172.11 92.0048 170.315 91.9113 165.732 92.5655Z" fill="currentColor"/>
<path d="M112.063 155.833C103.512 158.123 96.4723 161.067 92.74 163.87C89.1494 166.627 89.2912 171.674 93.1179 173.636C95.2439 174.711 96.3778 174.431 101.858 171.814C107.858 168.87 116.362 166.347 120.047 166.347C123.212 166.347 127.653 167.468 129.779 168.73C130.677 169.291 132.945 171.674 134.882 174.103C139.512 179.804 141.354 180.785 144.756 179.197C146.551 178.356 147.874 176.3 147.874 174.431C147.874 172.281 144.614 167.328 140.315 163.029C134.457 157.142 130.11 155.226 121.417 154.852C117.118 154.665 115.842 154.805 112.063 155.833Z" fill="currentColor"/>
</svg>
