<svg width="600" height="600" viewBox="0 0 600 600" fill="none" xmlns="http://www.w3.org/2000/svg">
<path d="M412.531 2.81511C407.412 4.30545 402.733 6.56856 396.952 10.4876C392.273 13.6339 383.355 22.1895 379.667 26.9917L377.85 29.3652L349.5 29.4756C320.214 29.586 319.333 29.6412 309.369 32.1251C289.441 36.9825 267.697 53.8731 238.025 87.4885C232.906 93.2291 217.767 112.107 212.042 119.779C194.977 142.742 188.756 161.122 187.38 192.64C186.774 205.722 188.591 225.097 191.509 237.627C197.069 261.251 206.702 279.19 223.052 296.247C236.429 310.156 256.412 321.914 282.34 331.076C297.203 336.375 307.883 339.08 322.636 341.398C327.205 342.116 331.113 342.889 331.389 343.165C332.104 343.882 331.003 356.136 329.682 362.65C329.022 365.685 327.7 371.095 326.655 374.627C325.609 378.215 324.012 385.225 323.021 390.248C322.085 395.271 319.828 405.317 318.067 412.604C316.36 419.89 314.654 427.341 314.323 429.163C313.993 430.984 313.222 435.345 312.562 438.822C311.956 442.3 311.241 446.053 310.91 447.157L310.415 449.2L299.79 449.42C289.606 449.641 289.056 449.696 283.991 451.463C277.551 453.671 274.523 455.382 266.1 461.454C262.467 464.103 254.87 469.347 249.255 473.155C202.408 504.894 186.664 518.859 164.479 548.114C152.203 564.342 129.853 597.295 129.853 599.172C129.853 599.89 132.771 600 150.497 600C169.764 600 171.14 599.945 171.195 599.006C171.195 597.351 188.536 573.229 199.821 559.154C206.482 550.819 218.538 538.565 225.639 532.879C236.319 524.324 254.21 511.408 274.523 497.608C280.303 493.634 286.964 489.163 289.276 487.562C292.304 485.465 294.175 484.581 296.047 484.361C297.423 484.195 299.405 483.919 300.396 483.753L302.268 483.477L301.772 492.475C301.552 497.443 301.332 523.551 301.332 550.598V599.724L318.562 599.89C332.104 600 335.738 599.89 335.793 599.338C335.793 598.951 335.793 577.7 335.738 552.144C335.683 524.269 335.848 505.612 336.123 505.612C336.729 505.612 343.83 512.787 347.353 516.927C357.042 528.353 362.712 538.786 368.272 555.4C369.758 559.871 371.85 565.667 372.951 568.372C375.428 574.443 384.346 592.328 386.383 595.419C387.264 596.633 388.089 598.234 388.31 598.841C388.64 600 388.75 600 407.742 599.89L426.844 599.724L426.734 598.565C426.679 597.902 423.872 592.328 420.514 586.145C410.384 567.489 404.935 555.897 401.301 545.354C396.402 530.837 394.31 525.98 389.521 517.479C378.676 498.215 367.061 485.244 344.27 467.194L342.068 465.428L342.784 463.054C344.05 458.583 346.692 446.329 348.124 438.27C348.894 433.91 350.491 426.679 351.702 422.263C352.913 417.847 354.73 409.512 355.831 403.772C356.877 397.976 358.968 388.703 360.51 383.073C363.868 370.708 365.189 363.312 366.07 351.941C366.73 344.213 366.896 343.33 367.776 343.33C371.905 343.33 400.421 339.853 411.43 338.031C453.873 330.966 495.16 316.007 517.125 299.724C540.025 282.778 553.347 262.962 563.917 230.175C571.679 205.888 573.495 186.182 570.247 161.012C568.816 150.138 567.88 144.894 565.733 136.891C559.513 113.321 543.989 79.0433 529.896 57.6817C525.878 51.61 517.565 41.1776 513.216 36.7066C500.39 23.6247 483.325 14.2962 460.975 8.22449C439.12 2.26313 421.504 0.276009 412.531 2.81511ZM434.111 34.7746C453.543 38.0865 470.718 43.8271 480.407 50.2852C488.554 55.6394 498.133 66.5686 506.445 79.8712C514.923 93.4499 527.254 120.166 532.208 135.787C535.456 146.164 536.392 150.248 538.264 162.834C541.347 183.643 539.805 201.251 533.089 221.84C524.887 247.01 515.473 261.417 499.344 273.395C477.6 289.623 435.762 303.201 389.411 309.108C345.757 314.627 319.168 311.812 283.496 297.682C259.384 288.188 243.09 275.161 232.3 256.725C223.052 240.994 217.767 213.615 219.474 189.991C220.63 173.487 222.611 164.986 227.511 154.83C229.162 151.463 232.465 145.998 234.832 142.686C240.943 134.131 257.237 113.487 263.843 106.035C271.825 96.9825 284.982 83.7903 291.808 77.9393C310.69 61.8767 317.131 60.276 358.583 61.4352C389.631 62.3183 391.172 62.2631 393.87 60.828C397.613 58.8961 400.751 55.253 403.558 49.6228C406.751 43.1647 412.807 36.8169 418.036 34.4434C420.403 33.3947 426.569 33.5051 434.111 34.7746Z" fill="currentColor"/>
<path d="M285.368 118.51C282.065 118.896 277.606 120.442 275.183 122.042C268.743 126.127 267.642 132.419 272.486 137.718C275.679 141.196 279.202 142.521 285.973 142.852C293.24 143.183 296.708 142.245 300.121 138.933C302.488 136.615 304.36 132.64 304.36 130.046C304.36 127.728 301.827 123.367 299.625 121.877C295.992 119.338 290.047 117.958 285.368 118.51Z" fill="currentColor"/>
<path d="M396.677 118.73C392.383 119.338 389.19 120.883 386.053 123.753C383.08 126.458 381.979 128.721 381.979 131.923C381.979 136.504 384.787 139.871 391.062 142.797C393.98 144.121 395.026 144.287 399.87 144.287C404.879 144.287 405.705 144.177 409.008 142.576C419.468 137.718 421.449 128.004 413.192 122.318C408.293 118.951 402.898 117.792 396.677 118.73Z" fill="currentColor"/>
<path d="M288.946 201.472C281.679 204.894 279.257 211.739 282.89 218.914C286.138 225.428 296.047 237.24 303.038 242.815C313.773 251.536 324.893 255.014 341.463 255.014C350.876 255.014 355.445 254.186 364.914 250.874C368.107 249.715 372.786 248.224 375.373 247.452C382.805 245.299 399.375 236.302 404.439 231.61C407.357 228.96 409.504 224.71 409.504 221.619C409.449 217.259 406.311 212.346 402.127 210.193C400.42 209.31 399.154 209.144 396.017 209.31C392.218 209.476 391.778 209.641 383.3 214.499C372.18 220.902 370.804 221.619 367.116 222.447C365.464 222.833 360.51 224.434 356.106 225.98L348.124 228.74L341.243 228.684C336.013 228.684 333.37 228.408 330.068 227.47C321.48 225.097 317.902 222.337 308.763 210.856C306.231 207.654 303.644 204.618 303.038 204.066C299.02 200.644 293.129 199.54 288.946 201.472Z" fill="currentColor"/>
</svg>
