<svg width="300" height="274" viewBox="0 0 300 274" fill="none" xmlns="http://www.w3.org/2000/svg">
<path fill-rule="evenodd" clip-rule="evenodd" d="M175.441 2.1876C171.468 3.34573 167.835 5.10436 163.349 8.14981C159.717 10.5947 152.794 17.2433 149.931 20.975L148.521 22.8194L126.515 22.9052C103.783 22.991 103.099 23.0339 95.365 24.9641C79.8966 28.7388 63.0182 41.8642 39.9866 67.9865C36.0126 72.4474 24.2618 87.1171 19.8179 93.0793C6.57149 110.923 1.74297 125.207 0.674717 149.699C0.204684 159.865 1.61478 174.92 3.87949 184.657C8.19524 203.016 15.673 216.956 28.3639 230.21C38.7474 241.02 54.2585 250.156 74.3844 257.276C85.9216 261.394 94.2112 263.496 105.663 265.297C109.21 265.855 112.243 266.455 112.457 266.67L140.702 266.799C143.907 266.799 166.041 264.096 174.587 262.681C207.532 257.19 239.58 245.566 256.629 232.913C274.405 219.744 284.745 204.345 292.95 178.867C298.975 159.993 300.385 144.68 297.864 125.121C296.753 116.671 296.026 112.596 294.36 106.376C289.531 88.0607 277.481 61.4237 266.542 44.8239C263.423 40.1056 256.971 31.9987 253.595 28.5243C243.639 18.3585 230.393 11.1095 213.044 6.39119C196.08 1.75868 182.406 0.214494 175.441 2.1876ZM228.128 39.0761C220.607 34.0576 207.276 29.5966 192.192 27.023C186.338 26.0365 181.552 25.9507 179.714 26.7657C175.655 28.6101 170.955 33.5429 168.476 38.5614C166.297 42.9366 163.862 45.7676 160.956 47.2688C158.862 48.3841 157.666 48.4269 133.566 47.7407C101.39 46.8399 96.3905 48.0838 81.734 60.5659C76.4355 65.1126 66.2229 75.3642 60.027 82.3987C54.8994 88.1894 42.2513 104.232 37.5082 110.88C35.6708 113.454 33.107 117.7 31.8251 120.317C28.0221 128.209 26.4838 134.815 25.5865 147.64C24.2618 165.998 28.3639 187.274 35.5426 199.498C43.9177 213.825 56.5659 223.948 75.2817 231.326C102.971 242.306 123.61 244.494 157.495 240.205C193.474 235.615 225.949 225.063 242.827 212.452C255.347 203.144 262.654 191.949 269.021 172.39C274.234 156.39 275.43 142.707 273.037 126.536C271.585 116.757 270.858 113.582 268.337 105.518C264.491 93.3795 254.92 72.619 248.339 62.0671C241.887 51.7297 234.452 43.2368 228.128 39.0761Z" fill="currentColor"/>
<path d="M76.7344 92.0927C74.1706 92.3929 70.7095 93.5939 68.8293 94.8379C63.8299 98.012 62.9753 102.902 66.7355 107.02C69.2139 109.722 71.9486 110.751 77.2045 111.009C82.8448 111.266 85.5369 110.537 88.1861 107.963C90.0235 106.162 91.4764 103.073 91.4764 101.057C91.4764 99.2559 89.5108 95.8673 87.8016 94.7092C84.9814 92.7361 80.3665 91.6637 76.7344 92.0927Z" fill="currentColor"/>
<path d="M163.135 92.2643C159.802 92.7361 157.324 93.9371 154.888 96.1676C152.581 98.2694 151.726 100.028 151.726 102.516C151.726 106.076 153.905 108.693 158.777 110.966C161.041 111.995 161.853 112.124 165.613 112.124C169.502 112.124 170.143 112.038 172.707 110.794C180.825 107.02 182.364 99.4704 175.954 95.0523C172.151 92.4358 167.964 91.5351 163.135 92.2643Z" fill="currentColor"/>
<path d="M159.579 178.607C165.22 175.947 167.1 170.629 164.28 165.052C161.758 159.991 154.067 150.812 148.64 146.479C140.308 139.702 131.676 137 118.815 137C111.508 137 107.961 137.643 100.611 140.217C98.1331 141.118 94.501 142.276 92.4927 142.876C86.7241 144.549 73.8623 151.541 69.9311 155.187C67.6664 157.246 65.9999 160.549 65.9999 162.951C66.0426 166.339 68.4783 170.157 71.7258 171.83C73.0504 172.516 74.0332 172.645 76.4688 172.516C79.4172 172.387 79.759 172.259 86.3395 168.484C94.971 163.508 96.0393 162.951 98.9022 162.307C100.184 162.007 104.03 160.763 107.448 159.562L113.644 157.417L118.985 157.46C123.045 157.46 125.096 157.675 127.66 158.404C134.326 160.248 137.103 162.393 144.196 171.315C146.162 173.803 148.17 176.162 148.64 176.591C151.76 179.25 156.332 180.108 159.579 178.607Z" fill="currentColor"/>
</svg>
