<svg width="300" height="274" viewBox="0 0 300 274" fill="none" xmlns="http://www.w3.org/2000/svg">
<path fill-rule="evenodd" clip-rule="evenodd" d="M175.441 2.18759C171.468 3.34573 167.835 5.10437 163.349 8.14981C159.717 10.5948 152.794 17.2433 149.932 20.975L148.521 22.8194L126.515 22.9052C103.783 22.991 103.099 23.0339 95.365 24.9641C79.8966 28.7388 63.0182 41.8642 39.9866 67.9865C36.0126 72.4474 24.2618 87.1171 19.8179 93.0793C6.57149 110.923 1.74297 125.207 0.674717 149.699C0.204684 159.865 1.61478 174.92 3.87949 184.657C8.19524 203.016 15.673 216.956 28.3639 230.21C38.7474 241.02 54.2585 250.156 74.3844 257.276C85.9216 261.394 94.2112 263.496 105.663 265.297C109.21 265.855 112.243 266.455 112.457 266.67L140.702 266.799C143.907 266.799 166.041 264.096 174.587 262.681C207.532 257.19 239.58 245.566 256.629 232.913C274.405 219.744 284.745 204.345 292.95 178.867C298.975 159.993 300.385 144.68 297.864 125.121C296.753 116.671 296.026 112.596 294.36 106.376C289.531 88.0607 277.481 61.4238 266.542 44.8239C263.423 40.1056 256.971 31.9987 253.595 28.5243C243.639 18.3585 230.393 11.1095 213.044 6.3912C196.08 1.75867 182.406 0.214508 175.441 2.18759ZM228.128 39.0761C220.607 34.0576 207.275 29.5966 192.192 27.023C186.338 26.0365 181.552 25.9507 179.714 26.7657C175.655 28.6101 170.955 33.5428 168.476 38.5614C166.297 42.9366 163.862 45.7675 160.956 47.2688C158.862 48.3841 157.666 48.427 133.566 47.7406C101.39 46.8399 96.3905 48.0838 81.734 60.5659C76.4355 65.1126 66.2229 75.3642 60.027 82.3987C54.8994 88.1894 42.2513 104.232 37.5082 110.88C35.6708 113.454 33.107 117.7 31.8251 120.317C28.0221 128.209 26.4838 134.815 25.5865 147.64C24.2618 165.998 28.3639 187.274 35.5426 199.498C43.9177 213.825 56.5659 223.948 75.2817 231.326C102.971 242.306 123.61 244.494 157.495 240.205C193.474 235.615 225.949 225.063 242.827 212.452C255.347 203.144 262.654 191.949 269.021 172.39C274.234 156.39 275.43 142.707 273.037 126.536C271.585 116.757 270.858 113.582 268.337 105.518C264.491 93.3795 254.92 72.619 248.339 62.0671C241.887 51.7298 234.452 43.2368 228.128 39.0761Z" fill="currentColor"/>
<path d="M76.7344 92.0927C74.1706 92.3929 70.7095 93.5939 68.8293 94.8379C63.8299 98.012 62.9753 102.902 66.7355 107.02C69.2139 109.722 71.9486 110.751 77.2045 111.009C82.8448 111.266 85.5369 110.537 88.1861 107.963C90.0235 106.162 91.4764 103.073 91.4764 101.057C91.4764 99.2559 89.5108 95.8673 87.8016 94.7092C84.9814 92.7361 80.3665 91.6637 76.7344 92.0927Z" fill="currentColor"/>
<path d="M163.135 92.2643C159.802 92.7361 157.324 93.9371 154.888 96.1676C152.581 98.2694 151.726 100.028 151.726 102.516C151.726 106.076 153.905 108.693 158.777 110.966C161.041 111.995 161.853 112.124 165.613 112.124C169.502 112.124 170.143 112.038 172.707 110.794C180.825 107.02 182.364 99.4704 175.954 95.0523C172.151 92.4358 167.964 91.5351 163.135 92.2643Z" fill="currentColor"/>
<path d="M79.5121 156.562C73.8717 159.221 71.9916 164.54 74.8118 170.116C77.3329 175.178 85.0243 184.357 90.4511 188.689C98.7835 195.466 107.415 198.169 120.277 198.169C127.584 198.169 131.13 197.525 138.48 194.952C140.958 194.051 144.59 192.893 146.599 192.292C152.367 190.619 165.229 183.628 169.16 179.982C171.425 177.923 173.091 174.62 173.091 172.218C173.049 168.829 170.613 165.012 167.366 163.339C166.041 162.653 165.058 162.524 162.622 162.653C159.674 162.781 159.332 162.91 152.752 166.685C144.12 171.66 143.052 172.218 140.189 172.861C138.907 173.162 135.061 174.406 131.643 175.607L125.447 177.751L120.106 177.708C116.047 177.708 113.995 177.494 111.432 176.765C104.766 174.92 101.988 172.776 94.895 163.854C92.9294 161.366 90.9211 159.007 90.4511 158.578C87.3318 155.918 82.7596 155.061 79.5121 156.562Z" fill="currentColor"/>
</svg>
