<svg width="262" height="60" viewBox="0 0 262 60" fill="none" xmlns="http://www.w3.org/2000/svg">
<path d="M8.52 23.88H22.48V28.28H8.52V23.88ZM8.96 39H3.76V11H24.2V15.36H8.96V39ZM24.0578 39L36.6578 11H41.7778L54.4178 39H48.9778L38.1378 13.76H40.2178L29.4178 39H24.0578ZM29.8578 32.52L31.2578 28.44H46.3778L47.7778 32.52H29.8578ZM57.9788 39V11H69.4988C71.9788 11 74.0988 11.4 75.8588 12.2C77.6454 13 79.0188 14.1467 79.9788 15.64C80.9388 17.1333 81.4188 18.9067 81.4188 20.96C81.4188 23.0133 80.9388 24.7867 79.9788 26.28C79.0188 27.7733 77.6454 28.92 75.8588 29.72C74.0988 30.52 71.9788 30.92 69.4988 30.92H60.8588L63.1788 28.48V39H57.9788ZM63.1788 29.04L60.8588 26.52H69.2588C71.5521 26.52 73.2721 26.04 74.4187 25.08C75.5921 24.0933 76.1788 22.72 76.1788 20.96C76.1788 19.1733 75.5921 17.8 74.4187 16.84C73.2721 15.88 71.5521 15.4 69.2588 15.4H60.8588L63.1788 12.84V29.04ZM95.6822 39.4C93.4955 39.4 91.4022 39.0933 89.4022 38.48C87.4022 37.84 85.8155 37.0267 84.6422 36.04L86.4422 32C87.5622 32.88 88.9489 33.6133 90.6022 34.2C92.2555 34.7867 93.9489 35.08 95.6822 35.08C97.1489 35.08 98.3355 34.92 99.2422 34.6C100.149 34.28 100.816 33.8533 101.242 33.32C101.669 32.76 101.882 32.1333 101.882 31.44C101.882 30.5867 101.576 29.9067 100.962 29.4C100.349 28.8667 99.5489 28.4533 98.5622 28.16C97.6022 27.84 96.5222 27.5467 95.3222 27.28C94.1489 27.0133 92.9622 26.7067 91.7622 26.36C90.5889 25.9867 89.5089 25.52 88.5222 24.96C87.5622 24.3733 86.7755 23.6 86.1622 22.64C85.5489 21.68 85.2422 20.4533 85.2422 18.96C85.2422 17.44 85.6422 16.0533 86.4422 14.8C87.2689 13.52 88.5089 12.5067 90.1622 11.76C91.8422 10.9867 93.9622 10.6 96.5222 10.6C98.2022 10.6 99.8689 10.8133 101.522 11.24C103.176 11.6667 104.616 12.28 105.842 13.08L104.202 17.12C102.949 16.3733 101.656 15.8267 100.322 15.48C98.9889 15.1067 97.7089 14.92 96.4822 14.92C95.0422 14.92 93.8689 15.0933 92.9622 15.44C92.0822 15.7867 91.4289 16.24 91.0022 16.8C90.6022 17.36 90.4022 18 90.4022 18.72C90.4022 19.5733 90.6955 20.2667 91.2822 20.8C91.8955 21.3067 92.6822 21.7067 93.6422 22C94.6289 22.2933 95.7222 22.5867 96.9222 22.88C98.1222 23.1467 99.3089 23.4533 100.482 23.8C101.682 24.1467 102.762 24.6 103.722 25.16C104.709 25.72 105.496 26.48 106.082 27.44C106.696 28.4 107.002 29.6133 107.002 31.08C107.002 32.5733 106.589 33.96 105.762 35.24C104.962 36.4933 103.722 37.5067 102.042 38.28C100.362 39.0267 98.2422 39.4 95.6822 39.4ZM117.448 39V15.4H108.168V11H131.928V15.4H122.648V39H117.448ZM130.464 39L143.064 11H148.184L160.824 39H155.384L144.544 13.76H146.624L135.824 39H130.464ZM136.264 32.52L137.664 28.44H152.784L154.184 32.52H136.264ZM168.659 39V15.4H159.379V11H183.139V15.4H173.859V39H168.659Z" fill="currentColor"/>
<path d="M2.832 57V49.92H0.048V48.6H7.176V49.92H4.392V57H2.832ZM12.1656 57.12C11.5096 57.12 10.9056 57.012 10.3536 56.796C9.80156 56.58 9.32156 56.28 8.91356 55.896C8.50556 55.504 8.18956 55.048 7.96556 54.528C7.74156 54 7.62956 53.424 7.62956 52.8C7.62956 52.176 7.74156 51.604 7.96556 51.084C8.18956 50.556 8.50556 50.1 8.91356 49.716C9.32156 49.324 9.80156 49.02 10.3536 48.804C10.9056 48.588 11.5056 48.48 12.1536 48.48C12.8096 48.48 13.4096 48.588 13.9536 48.804C14.5056 49.02 14.9856 49.324 15.3936 49.716C15.8016 50.1 16.1176 50.556 16.3416 51.084C16.5656 51.604 16.6776 52.176 16.6776 52.8C16.6776 53.424 16.5656 54 16.3416 54.528C16.1176 55.056 15.8016 55.512 15.3936 55.896C14.9856 56.28 14.5056 56.58 13.9536 56.796C13.4096 57.012 12.8136 57.12 12.1656 57.12ZM12.1536 55.752C12.5776 55.752 12.9696 55.68 13.3296 55.536C13.6896 55.392 14.0016 55.188 14.2656 54.924C14.5296 54.652 14.7336 54.34 14.8776 53.988C15.0296 53.628 15.1056 53.232 15.1056 52.8C15.1056 52.368 15.0296 51.976 14.8776 51.624C14.7336 51.264 14.5296 50.952 14.2656 50.688C14.0016 50.416 13.6896 50.208 13.3296 50.064C12.9696 49.92 12.5776 49.848 12.1536 49.848C11.7296 49.848 11.3376 49.92 10.9776 50.064C10.6256 50.208 10.3136 50.416 10.0416 50.688C9.77756 50.952 9.56956 51.264 9.41756 51.624C9.27356 51.976 9.20156 52.368 9.20156 52.8C9.20156 53.224 9.27356 53.616 9.41756 53.976C9.56956 54.336 9.77756 54.652 10.0416 54.924C10.3056 55.188 10.6176 55.392 10.9776 55.536C11.3376 55.68 11.7296 55.752 12.1536 55.752ZM21.6475 57V48.6H23.2075V57H21.6475ZM25.4796 57V48.6H26.7636L32.0316 55.068H31.3956V48.6H32.9436V57H31.6596L26.3916 50.532H27.0276V57H25.4796ZM36.6224 52.464H40.8104V53.784H36.6224V52.464ZM36.7544 57H35.1944V48.6H41.3264V49.908H36.7544V57ZM42.835 57V48.6H44.395V57H42.835ZM46.6671 57V48.6H47.9511L53.2191 55.068H52.5831V48.6H54.1311V57H52.8471L47.5791 50.532H48.2151V57H46.6671ZM56.3819 57V48.6H57.9419V57H56.3819ZM61.9179 57V49.92H59.1339V48.6H66.2619V49.92H63.4779V57H61.9179ZM69.3678 57V53.676L69.7158 54.636L66.0678 48.6H67.7358L70.6638 53.46H69.7278L72.6798 48.6H74.2158L70.5678 54.636L70.9278 53.676V57H69.3678ZM77.3658 57L81.1458 48.6H82.6818L86.4738 57H84.8418L81.5898 49.428H82.2138L78.9738 57H77.3658ZM79.1058 55.056L79.5258 53.832H84.0618L84.4818 55.056H79.1058ZM87.5421 57V48.6H88.8261L94.0941 55.068H93.4581V48.6H95.0061V57H93.7221L88.4541 50.532H89.0901V57H87.5421ZM97.2569 57V48.6H100.929C101.841 48.6 102.641 48.776 103.329 49.128C104.017 49.48 104.553 49.968 104.937 50.592C105.321 51.216 105.513 51.952 105.513 52.8C105.513 53.64 105.321 54.376 104.937 55.008C104.553 55.632 104.017 56.12 103.329 56.472C102.641 56.824 101.841 57 100.929 57H97.2569ZM98.8169 55.68H100.857C101.489 55.68 102.033 55.56 102.489 55.32C102.953 55.08 103.309 54.744 103.557 54.312C103.813 53.88 103.941 53.376 103.941 52.8C103.941 52.216 103.813 51.712 103.557 51.288C103.309 50.856 102.953 50.52 102.489 50.28C102.033 50.04 101.489 49.92 100.857 49.92H98.8169V55.68ZM110.487 57V48.6H114.423C115.431 48.6 116.199 48.8 116.727 49.2C117.255 49.592 117.519 50.12 117.519 50.784C117.519 51.232 117.415 51.616 117.207 51.936C116.999 52.248 116.719 52.492 116.367 52.668C116.023 52.836 115.647 52.92 115.239 52.92L115.455 52.488C115.927 52.488 116.351 52.576 116.727 52.752C117.103 52.92 117.399 53.168 117.615 53.496C117.839 53.824 117.951 54.232 117.951 54.72C117.951 55.44 117.675 56 117.123 56.4C116.571 56.8 115.751 57 114.663 57H110.487ZM112.047 55.776H114.567C115.151 55.776 115.599 55.68 115.911 55.488C116.223 55.296 116.379 54.988 116.379 54.564C116.379 54.148 116.223 53.844 115.911 53.652C115.599 53.452 115.151 53.352 114.567 53.352H111.927V52.14H114.255C114.799 52.14 115.215 52.044 115.503 51.852C115.799 51.66 115.947 51.372 115.947 50.988C115.947 50.596 115.799 50.304 115.503 50.112C115.215 49.92 114.799 49.824 114.255 49.824H112.047V55.776ZM121.056 52.092H125.232V53.376H121.056V52.092ZM121.176 55.692H125.916V57H119.616V48.6H125.748V49.908H121.176V55.692ZM129.626 57V53.676L129.974 54.636L126.326 48.6H127.994L130.922 53.46H129.986L132.938 48.6H134.474L130.826 54.636L131.186 53.676V57H129.626ZM139.068 57.12C138.412 57.12 137.808 57.012 137.256 56.796C136.704 56.58 136.224 56.28 135.816 55.896C135.408 55.504 135.092 55.048 134.868 54.528C134.644 54 134.532 53.424 134.532 52.8C134.532 52.176 134.644 51.604 134.868 51.084C135.092 50.556 135.408 50.1 135.816 49.716C136.224 49.324 136.704 49.02 137.256 48.804C137.808 48.588 138.408 48.48 139.056 48.48C139.712 48.48 140.312 48.588 140.856 48.804C141.408 49.02 141.888 49.324 142.296 49.716C142.704 50.1 143.02 50.556 143.244 51.084C143.468 51.604 143.58 52.176 143.58 52.8C143.58 53.424 143.468 54 143.244 54.528C143.02 55.056 142.704 55.512 142.296 55.896C141.888 56.28 141.408 56.58 140.856 56.796C140.312 57.012 139.716 57.12 139.068 57.12ZM139.056 55.752C139.48 55.752 139.872 55.68 140.232 55.536C140.592 55.392 140.904 55.188 141.168 54.924C141.432 54.652 141.636 54.34 141.78 53.988C141.932 53.628 142.008 53.232 142.008 52.8C142.008 52.368 141.932 51.976 141.78 51.624C141.636 51.264 141.432 50.952 141.168 50.688C140.904 50.416 140.592 50.208 140.232 50.064C139.872 49.92 139.48 49.848 139.056 49.848C138.632 49.848 138.24 49.92 137.88 50.064C137.528 50.208 137.216 50.416 136.944 50.688C136.68 50.952 136.472 51.264 136.32 51.624C136.176 51.976 136.104 52.368 136.104 52.8C136.104 53.224 136.176 53.616 136.32 53.976C136.472 54.336 136.68 54.652 136.944 54.924C137.208 55.188 137.52 55.392 137.88 55.536C138.24 55.68 138.632 55.752 139.056 55.752ZM145.233 57V48.6H146.517L151.785 55.068H151.149V48.6H152.697V57H151.413L146.145 50.532H146.781V57H145.233ZM154.948 57V48.6H158.62C159.532 48.6 160.332 48.776 161.02 49.128C161.708 49.48 162.244 49.968 162.628 50.592C163.012 51.216 163.204 51.952 163.204 52.8C163.204 53.64 163.012 54.376 162.628 55.008C162.244 55.632 161.708 56.12 161.02 56.472C160.332 56.824 159.532 57 158.62 57H154.948ZM156.508 55.68H158.548C159.18 55.68 159.724 55.56 160.18 55.32C160.644 55.08 161 54.744 161.248 54.312C161.504 53.88 161.632 53.376 161.632 52.8C161.632 52.216 161.504 51.712 161.248 51.288C161 50.856 160.644 50.52 160.18 50.28C159.724 50.04 159.18 49.92 158.548 49.92H156.508V55.68Z" fill="currentColor"/>
<rect x="168" y="51" width="94" height="2" fill="currentColor"/>
</svg>
