<svg width="44" height="40" viewBox="0 0 44 40" fill="none" xmlns="http://www.w3.org/2000/svg">
<path fill-rule="evenodd" clip-rule="evenodd" d="M25.7314 0.319359C25.1485 0.488426 24.6158 0.745163 23.9578 1.18975C23.4251 1.54668 22.4098 2.51727 21.9899 3.06205L21.7831 3.3313L18.5556 3.34383C15.2215 3.35635 15.1212 3.36261 13.9868 3.6444C11.7181 4.19544 9.24263 6.11156 5.86467 9.92503C5.28182 10.5763 3.55837 12.7178 2.90659 13.5882C0.96379 16.1931 0.255607 18.2783 0.0989292 21.8539C0.029991 23.3379 0.236806 25.5358 0.568962 26.9573C1.20194 29.6373 2.29868 31.6724 4.16001 33.6073C5.68292 35.1853 7.95788 36.5191 10.9097 37.5586C12.6018 38.1597 13.8176 38.4665 15.4972 38.7295C16.0174 38.8109 16.4623 38.8986 16.4937 38.9299L20.6362 38.9487C21.1063 38.9487 24.3526 38.5542 25.606 38.3476C30.438 37.546 35.1383 35.8491 37.6389 34.0018C40.246 32.0795 41.7626 29.8314 42.9659 26.1119C43.8496 23.3567 44.0564 21.1212 43.6866 18.2658C43.5237 17.0322 43.4172 16.4374 43.1727 15.5294C42.4646 12.8556 40.6972 8.96697 39.0929 6.54364C38.6354 5.85483 37.689 4.67134 37.1939 4.16413C35.7337 2.68008 33.7909 1.62182 31.2464 0.933022C28.7584 0.256741 26.7529 0.031311 25.7314 0.319359ZM33.4587 5.70455C32.3557 4.97191 30.4004 4.32068 28.1881 3.94497C27.3295 3.80095 26.6276 3.78842 26.3581 3.90739C25.7627 4.17665 25.0733 4.89677 24.7098 5.6294C24.3902 6.26811 24.033 6.6814 23.6068 6.90056C23.2997 7.06337 23.1243 7.06963 19.5896 6.96944C14.8705 6.83794 14.1372 7.01954 11.9876 8.84173C11.2105 9.50549 9.71267 11.0021 8.80394 12.029C8.05188 12.8744 6.19682 15.2163 5.50117 16.1869C5.23169 16.5626 4.85566 17.1825 4.66765 17.5645C4.10988 18.7167 3.88426 19.681 3.75265 21.5533C3.55837 24.2334 4.16001 27.3392 5.21289 29.1239C6.44124 31.2153 8.2963 32.6931 11.0413 33.7702C15.1024 35.3732 18.1294 35.6925 23.0992 35.0664C28.3761 34.3963 33.1391 32.8559 35.6146 31.0149C37.4509 29.6561 38.5225 28.0218 39.4563 25.1664C40.2209 22.8307 40.3964 20.8332 40.0455 18.4725C39.8324 17.0448 39.7258 16.5814 39.3561 15.4042C38.792 13.632 37.3882 10.6013 36.4231 9.06089C35.4767 7.55179 34.3863 6.31195 33.4587 5.70455Z" fill="currentColor"/>
<path d="M11.2544 13.4442C10.8784 13.488 10.3707 13.6634 10.095 13.845C9.36173 14.3083 9.23638 15.0222 9.78789 15.6233C10.1514 16.0178 10.5525 16.1681 11.3233 16.2057C12.1506 16.2432 12.5454 16.1368 12.934 15.7611C13.2035 15.4981 13.4165 15.0472 13.4165 14.7529C13.4165 14.4899 13.1283 13.9952 12.8776 13.8262C12.4639 13.5381 11.7871 13.3816 11.2544 13.4442Z" fill="currentColor"/>
<path d="M23.9265 13.4692C23.4377 13.5381 23.0742 13.7134 22.7169 14.0391C22.3785 14.3459 22.2532 14.6026 22.2532 14.9658C22.2532 15.4855 22.5728 15.8675 23.2872 16.1994C23.6194 16.3497 23.7385 16.3685 24.29 16.3685C24.8603 16.3685 24.9543 16.3559 25.3303 16.1744C26.5211 15.6233 26.7467 14.5212 25.8066 13.8763C25.2488 13.4943 24.6347 13.3628 23.9265 13.4692Z" fill="currentColor"/>
<path d="M11.6618 22.8558C10.8345 23.244 10.5588 24.0205 10.9724 24.8345C11.3421 25.5734 12.4702 26.9134 13.2661 27.5459C14.4882 28.5353 15.7542 28.9297 17.6406 28.9297C18.7123 28.9297 19.2324 28.8358 20.3104 28.4601C20.6739 28.3286 21.2066 28.1595 21.5011 28.0719C22.3472 27.8277 24.2336 26.807 24.8102 26.2747C25.1423 25.9742 25.3867 25.492 25.3867 25.1413C25.3805 24.6466 25.0232 24.0893 24.5469 23.8451C24.3527 23.7449 24.2085 23.7262 23.8513 23.7449C23.4189 23.7637 23.3687 23.7825 22.4036 24.3336C21.1376 25.0599 20.9809 25.1413 20.5611 25.2353C20.373 25.2791 19.809 25.4607 19.3076 25.636L18.3989 25.9491L17.6155 25.9428C17.0201 25.9428 16.7193 25.9115 16.3433 25.8051C15.3656 25.5358 14.9583 25.2227 13.9179 23.9203C13.6296 23.5571 13.3351 23.2127 13.2661 23.1501C12.8086 22.7618 12.1381 22.6366 11.6618 22.8558Z" fill="currentColor"/>
</svg>
