<svg width="44" height="40" viewBox="0 0 44 40" fill="none" xmlns="http://www.w3.org/2000/svg">
<path fill-rule="evenodd" clip-rule="evenodd" d="M25.7314 0.319359C25.1485 0.48843 24.6158 0.745163 23.9578 1.18975C23.4251 1.54668 22.4098 2.51727 21.9899 3.06205L21.7831 3.33131L18.5556 3.34383C15.2215 3.35635 15.1212 3.36262 13.9868 3.6444C11.7181 4.19544 9.24263 6.11156 5.86467 9.92503C5.28182 10.5763 3.55837 12.7178 2.90659 13.5882C0.96379 16.1931 0.255607 18.2783 0.0989292 21.8539C0.029991 23.3379 0.236806 25.5358 0.568962 26.9573C1.20194 29.6373 2.29868 31.6724 4.16001 33.6073C5.68292 35.1853 7.95788 36.5191 10.9097 37.5586C12.6018 38.1597 13.8176 38.4665 15.4972 38.7295C16.0174 38.8109 16.4623 38.8986 16.4937 38.9299L20.6362 38.9487C21.1063 38.9487 24.3526 38.5542 25.606 38.3476C30.438 37.546 35.1383 35.8491 37.6389 34.0018C40.246 32.0795 41.7626 29.8314 42.9659 26.1119C43.8496 23.3567 44.0564 21.1212 43.6866 18.2658C43.5237 17.0322 43.4172 16.4374 43.1727 15.5294C42.4646 12.8556 40.6972 8.96697 39.0929 6.54364C38.6354 5.85484 37.689 4.67134 37.1939 4.16413C35.7337 2.68008 33.7909 1.62183 31.2464 0.933022C28.7584 0.256744 26.7529 0.0313148 25.7314 0.319359ZM33.4587 5.70455C32.3557 4.97191 30.4004 4.32068 28.1881 3.94497C27.3295 3.80095 26.6276 3.78842 26.3581 3.9074C25.7627 4.17666 25.0733 4.89677 24.7098 5.62941C24.3902 6.26811 24.033 6.6814 23.6068 6.90056C23.2997 7.06337 23.1243 7.06963 19.5896 6.96944C14.8705 6.83794 14.1372 7.01954 11.9876 8.84174C11.2105 9.50549 9.71267 11.0021 8.80394 12.029C8.05188 12.8744 6.19682 15.2163 5.50117 16.1869C5.23169 16.5626 4.85566 17.1825 4.66765 17.5645C4.10988 18.7167 3.88426 19.681 3.75265 21.5533C3.55837 24.2334 4.16001 27.3392 5.21289 29.1239C6.44124 31.2153 8.2963 32.6931 11.0413 33.7702C15.1024 35.3732 18.1294 35.6925 23.0992 35.0664C28.3761 34.3963 33.1391 32.8559 35.6146 31.0149C37.4509 29.6561 38.5225 28.0218 39.4563 25.1664C40.2209 22.8307 40.3964 20.8332 40.0455 18.4725C39.8324 17.0448 39.7258 16.5814 39.3561 15.4042C38.792 13.632 37.3882 10.6013 36.4231 9.0609C35.4767 7.55179 34.3863 6.31195 33.4587 5.70455Z" fill="currentColor"/>
<path d="M11.2544 13.4442C10.8784 13.488 10.3707 13.6634 10.095 13.845C9.36173 14.3083 9.23638 15.0222 9.78789 15.6233C10.1514 16.0178 10.5525 16.1681 11.3233 16.2057C12.1506 16.2432 12.5454 16.1368 12.934 15.7611C13.2035 15.4981 13.4165 15.0472 13.4165 14.7529C13.4165 14.4899 13.1283 13.9952 12.8776 13.8262C12.4639 13.5381 11.7871 13.3816 11.2544 13.4442Z" fill="currentColor"/>
<path d="M23.9265 13.4692C23.4377 13.5381 23.0742 13.7134 22.7169 14.0391C22.3785 14.3459 22.2532 14.6026 22.2532 14.9658C22.2532 15.4855 22.5728 15.8675 23.2872 16.1994C23.6194 16.3497 23.7385 16.3685 24.29 16.3685C24.8603 16.3685 24.9543 16.3559 25.3303 16.1744C26.5211 15.6233 26.7467 14.5212 25.8066 13.8763C25.2488 13.4943 24.6347 13.3628 23.9265 13.4692Z" fill="currentColor"/>
<path d="M23.4049 26.074C24.2321 25.6858 24.5079 24.9093 24.0943 24.0952C23.7245 23.3564 22.5964 22.0163 21.8005 21.3839C20.5784 20.3945 19.3125 20 17.4261 20C16.3544 20 15.8342 20.0939 14.7563 20.4696C14.3928 20.6011 13.8601 20.7702 13.5655 20.8579C12.7195 21.1021 10.8331 22.1228 10.2565 22.655C9.92434 22.9556 9.67993 23.4378 9.67993 23.7884C9.68619 24.2831 10.0434 24.8404 10.5197 25.0846C10.714 25.1848 10.8581 25.2036 11.2154 25.1848C11.6478 25.166 11.6979 25.1472 12.6631 24.5962C13.929 23.8698 14.0857 23.7884 14.5056 23.6945C14.6936 23.6507 15.2576 23.4691 15.759 23.2937L16.6677 22.9806L17.4511 22.9869C18.0465 22.9869 18.3473 23.0182 18.7234 23.1247C19.701 23.3939 20.1084 23.707 21.1487 25.0095C21.437 25.3727 21.7316 25.7171 21.8005 25.7797C22.258 26.1679 22.9286 26.2932 23.4049 26.074Z" fill="currentColor"/>
</svg>
