<svg width="44" height="40" viewBox="0 0 44 40" fill="none" xmlns="http://www.w3.org/2000/svg">
<path d="M25.916 0.307713C24.8893 0.556797 23.8333 1.21614 22.748 2.28573L21.6773 3.36998H18.4213C14.7693 3.36998 13.9626 3.50185 12.3493 4.30771C10.9413 5.02566 9.69462 5.99269 7.81729 7.8828C6.10129 9.59709 2.99196 13.348 2.02396 14.8718C0.601289 17.1136 0.0732888 19.4872 0.190622 23.2235C0.337289 27.8095 1.46662 30.7546 4.16529 33.5238C5.86662 35.2821 8.05196 36.5568 11.2053 37.641C15.0626 38.9744 18.5093 39.2674 23.2026 38.6667C29.9053 37.8169 35.2146 35.9854 38.3386 33.4359C40.6706 31.5312 42.2986 28.718 43.2813 24.9377C44.5133 20.1758 43.692 15.2674 40.6853 9.36266C38.7053 5.49453 36.9453 3.4872 34.32 2.13921C31.8266 0.849834 27.5293 -0.0878944 25.916 0.307713ZM28.7173 4.04398C31.2546 4.57145 33.044 5.28939 34.1293 6.22712C35.8893 7.73628 38.324 12.1026 39.468 15.7509C40.172 18.066 40.392 21.1722 39.952 23.2381C39.4386 25.7729 38.3093 28.2784 37.092 29.6557C35.6253 31.2967 33.8066 32.3224 30.5066 33.4213C26.4 34.7693 22.264 35.3846 18.26 35.2674C15.4 35.1795 13.86 34.8718 11.264 33.8462C6.83462 32.1026 4.79596 29.729 3.94529 25.348C3.71062 24.1319 3.71062 21.0257 3.94529 19.7802C4.31196 17.8608 4.89862 16.8498 7.45062 13.685C9.43062 11.2235 11.8506 8.79123 13.1853 7.94141C14.5933 7.01833 15.0773 6.95972 19.5506 7.00368L23.496 7.03299L24.024 6.47621C24.332 6.16852 24.728 5.62639 24.9333 5.27475C25.1386 4.93775 25.564 4.45423 25.872 4.23445C26.5466 3.73628 27.06 3.70698 28.7173 4.04398Z" fill="currentColor"/>
<path d="M10.3106 13.7729C10.0466 13.9194 9.73864 14.2125 9.60664 14.4176C9.40131 14.7253 9.38664 14.8425 9.56264 15.1795C9.89998 15.8682 10.4426 16.1612 11.4106 16.1759C12.1 16.1905 12.3933 16.1172 12.716 15.8828C13.5373 15.2674 13.5373 14.2711 12.716 13.7729C12.0853 13.392 10.9413 13.3773 10.3106 13.7729Z" fill="currentColor"/>
<path d="M23.2466 13.6997C21.9706 14.359 21.956 15.5458 23.2173 16.1319C24.0386 16.4982 24.728 16.4835 25.4466 16.0733C26.5906 15.4286 26.6786 14.4909 25.6813 13.8169C25.08 13.4213 23.9213 13.3627 23.2466 13.6997Z" fill="currentColor"/>
<path d="M9.95865 20.2051C9.53332 20.5421 9.40132 21.6117 9.40132 24.9377C9.38665 28.3077 9.73865 29.729 10.9413 31.0476C12.1146 32.3517 13.1413 32.6887 17.116 33.0403C20.812 33.3627 22.264 33.1429 23.936 32C25.564 30.8718 27.2946 26.7546 27.5293 23.4139L27.6173 22.1392L27.1626 21.6997C26.576 21.1136 25.9453 21.0843 25.388 21.6557C25.0213 22.0073 24.9773 22.1978 24.8893 23.2967C24.7426 25.3627 23.716 28.337 22.7626 29.4799C22.2493 30.0806 21.3986 30.4469 20.24 30.5495C18.92 30.6813 14.3293 30.1685 13.596 29.8169C12.9066 29.4945 12.3933 28.7473 12.1733 27.7656C12.012 27.0476 11.9533 21.6264 12.1 21.3773C12.232 21.1722 11.7773 20.2491 11.4693 20.0879C11.0146 19.8388 10.34 19.8975 9.95865 20.2051Z" fill="currentColor"/>
</svg>
