<svg width="44" height="40" viewBox="0 0 44 40" fill="none" xmlns="http://www.w3.org/2000/svg">
<path d="M25.7412 0.34354C24.7145 0.592625 23.6585 1.25196 22.5732 2.32156L21.5025 3.40581H18.2465C14.5945 3.40581 13.7878 3.53768 12.1745 4.34354C10.7665 5.06149 9.51982 6.02852 7.64248 7.91863C5.92648 9.63292 2.81715 13.3838 1.84915 14.9076C0.426484 17.1494 -0.101516 19.523 0.0158174 23.2593C0.162484 27.8454 1.29182 30.7904 3.99048 33.5597C5.69182 35.3179 7.87715 36.5926 11.0305 37.6769C14.8878 39.0102 18.3345 39.3032 23.0278 38.7025C29.7305 37.8527 35.0398 36.0212 38.1638 33.4717C40.4958 31.567 42.1238 28.7538 43.1065 24.9736C44.3385 20.2117 43.5172 15.3032 40.5105 9.39849C38.5305 5.53035 36.7705 3.52303 34.1451 2.17504C31.6518 0.885662 27.3545 -0.0520668 25.7412 0.34354ZM28.5425 4.0798C31.0798 4.60728 32.8692 5.32522 33.9545 6.26295C35.7145 7.77211 38.1492 12.1384 39.2932 15.7868C39.9972 18.1018 40.2172 21.208 39.7771 23.2739C39.2638 25.8087 38.1345 28.3142 36.9172 29.6915C35.4505 31.3326 33.6318 32.3582 30.3318 33.4571C26.2252 34.8051 22.0892 35.4205 18.0852 35.3032C15.2252 35.2153 13.6852 34.9076 11.0892 33.882C6.65982 32.1384 4.62115 29.7648 3.77048 25.3838C3.53582 24.1677 3.53582 21.0615 3.77048 19.8161C4.13715 17.8967 4.72382 16.8857 7.27582 13.7208C9.25582 11.2593 11.6758 8.82705 13.0105 7.97724C14.4185 7.05416 14.9025 6.99555 19.3758 7.03951L23.3212 7.06881L23.8492 6.51204C24.1572 6.20435 24.5532 5.66222 24.7585 5.31057C24.9638 4.97358 25.3892 4.49006 25.6972 4.27028C26.3718 3.77211 26.8852 3.74281 28.5425 4.0798Z" fill="currentColor"/>
<path d="M10.1358 13.8087C9.87184 13.9553 9.56384 14.2483 9.43184 14.4534C9.2265 14.7611 9.21184 14.8783 9.38784 15.2153C9.72517 15.904 10.2678 16.197 11.2358 16.2117C11.9252 16.2263 12.2185 16.1531 12.5412 15.9186C13.3625 15.3033 13.3625 14.3069 12.5412 13.8087C11.9105 13.4278 10.7665 13.4131 10.1358 13.8087Z" fill="currentColor"/>
<path d="M23.0718 13.7355C21.7958 14.3948 21.7812 15.5816 23.0425 16.1677C23.8638 16.534 24.5532 16.5194 25.2718 16.1091C26.4158 15.4644 26.5038 14.5267 25.5065 13.8527C24.9052 13.4571 23.7465 13.3985 23.0718 13.7355Z" fill="currentColor"/>
<path d="M16.1785 19.0688C13.5971 19.4937 11.6171 20.578 10.1945 22.3216C9.12379 23.6402 8.33179 25.7648 8.33179 27.3033C8.33179 28.5047 9.60779 29.1641 10.4731 28.4168C10.7958 28.1384 10.8985 27.8893 10.9865 27.0981C11.2211 25.1348 12.5411 23.2153 14.1985 22.4095C15.6358 21.7062 16.8825 21.5304 19.7718 21.6329C21.1798 21.6769 22.5878 21.7794 22.8811 21.8674C23.9078 22.1604 24.5825 23.6256 24.7585 25.9699C24.8758 27.5816 25.1251 28.3289 25.6238 28.6073C26.1078 28.8564 26.6358 28.7685 27.1051 28.3435L27.5598 27.9479L27.4131 26.0432C27.3105 24.6219 27.1785 23.86 26.8851 23.0395C25.9905 20.578 25.0225 19.5963 23.0718 19.2446C21.9425 19.0249 17.1318 18.9076 16.1785 19.0688Z" fill="currentColor"/>
</svg>
