<?xml version="1.0" standalone="no"?>
<!DOCTYPE svg PUBLIC "-//W3C//DTD SVG 20010904//EN"
 "http://www.w3.org/TR/2001/REC-SVG-20010904/DTD/svg10.dtd">
<svg version="1.0" xmlns="http://www.w3.org/2000/svg"
 width="600.000000pt" height="600.000000pt" viewBox="0 0 600.000000 600.000000"
 preserveAspectRatio="xMidYMid meet">
<metadata>
Created by potrace 1.14, written by Peter Selinger 2001-2017
</metadata>
<g transform="translate(0.000000,600.000000) scale(0.100000,-0.100000)"
fill="#000000" stroke="none">
<path d="M3590 5708 c-73 -9 -109 -17 -132 -29 -10 -5 -18 -6 -18 -2 0 4 -4 4
-8 -2 -4 -5 -34 -23 -66 -39 -103 -51 -265 -189 -364 -311 l-32 -40 -363 -2
c-414 -2 -577 -9 -634 -27 -26 -8 -61 -16 -88 -20 -11 -2 -21 -5 -22 -6 -2 -1
-6 -3 -10 -5 -94 -26 -328 -148 -341 -177 -2 -5 -8 -8 -14 -8 -5 0 -15 -6 -22
-12 -8 -7 -24 -20 -36 -28 -13 -8 -55 -42 -94 -75 -201 -169 -449 -423 -627
-641 -35 -44 -77 -95 -94 -114 -16 -20 -41 -51 -55 -69 -14 -19 -33 -43 -43
-55 -10 -11 -44 -55 -75 -96 -32 -41 -60 -77 -63 -80 -35 -30 -250 -400 -232
-400 3 0 1 -6 -5 -12 -12 -15 -70 -191 -78 -234 -3 -16 -7 -37 -10 -46 -7 -23
-13 -56 -20 -108 -3 -25 -8 -47 -9 -50 -9 -14 -19 -223 -19 -365 0 -139 9
-302 19 -354 2 -9 6 -44 10 -76 4 -33 14 -89 22 -125 8 -36 16 -74 18 -85 2
-11 4 -20 5 -20 1 0 3 -7 5 -15 1 -8 9 -35 16 -60 16 -56 15 -52 22 -70 4 -8
14 -37 23 -65 49 -151 204 -419 303 -527 9 -9 50 -55 91 -101 148 -164 396
-334 654 -447 50 -22 99 -45 108 -50 10 -6 22 -10 28 -10 6 0 29 -9 53 -19 86
-40 411 -141 506 -157 14 -3 46 -10 71 -15 25 -6 63 -13 85 -16 22 -2 81 -12
130 -21 72 -14 150 -17 395 -16 168 1 325 4 350 7 48 6 120 15 185 22 22 2 60
7 85 10 25 4 63 8 85 10 22 2 40 5 40 5 0 2 28 7 85 15 89 12 97 13 127 19 37
8 63 13 104 20 49 7 294 64 358 83 29 8 59 16 65 17 20 4 94 26 158 47 35 11
70 22 78 24 37 9 237 84 340 128 14 6 27 11 30 11 3 1 68 32 145 70 123 61
308 172 347 208 7 7 36 31 63 53 52 41 195 181 230 225 133 165 208 292 315
535 18 40 79 211 86 240 4 17 9 35 13 40 3 6 6 15 7 20 1 6 7 28 13 50 6 22
10 42 10 45 0 3 4 18 10 33 6 15 13 42 16 60 4 18 12 64 20 102 8 39 17 88 20
110 10 67 13 446 5 520 -13 110 -21 168 -25 195 -3 14 -7 40 -10 58 -19 121
-45 227 -89 362 -29 91 -91 260 -117 317 -11 23 -19 45 -19 48 0 9 -42 99
-140 300 -76 155 -105 209 -183 340 -7 11 -22 34 -34 52 -13 17 -23 36 -23 40
0 5 -8 18 -17 29 -10 10 -38 46 -62 79 -25 33 -50 65 -55 70 -6 6 -29 33 -51
60 -79 99 -168 178 -331 293 -10 7 -31 19 -76 45 -13 6 -30 17 -38 24 -8 6
-18 12 -22 12 -4 1 -42 17 -84 36 -43 20 -98 42 -123 51 -86 30 -235 74 -264
80 -17 3 -33 7 -37 9 -3 2 -17 6 -31 8 -13 3 -42 10 -64 15 -22 6 -58 14 -80
17 -22 4 -49 9 -60 11 -140 24 -264 32 -345 22z m213 -502 c18 -3 50 -8 72
-11 146 -22 419 -103 554 -166 119 -55 181 -100 275 -194 152 -155 247 -292
385 -558 34 -65 61 -124 61 -132 0 -8 4 -15 9 -15 5 0 13 -10 16 -22 4 -13 20
-50 35 -83 44 -97 56 -125 95 -225 33 -84 83 -231 89 -264 2 -6 8 -29 14 -51
6 -22 14 -58 18 -80 3 -22 8 -43 10 -46 2 -4 11 -53 19 -110 46 -303 37 -534
-30 -799 -25 -100 -93 -304 -127 -380 -160 -365 -370 -577 -751 -759 -137 -65
-415 -171 -454 -173 -5 0 -29 -9 -55 -19 -27 -10 -48 -17 -48 -14 0 2 -11 0
-25 -5 -14 -5 -36 -12 -48 -14 -12 -3 -47 -12 -77 -20 -30 -8 -66 -17 -80 -19
-14 -3 -43 -10 -65 -15 -22 -6 -53 -13 -70 -16 -16 -3 -50 -10 -75 -15 -25 -5
-63 -12 -84 -15 -21 -4 -48 -8 -60 -11 -12 -2 -37 -7 -56 -10 -19 -2 -46 -7
-60 -10 -14 -3 -47 -7 -75 -10 -27 -3 -61 -7 -75 -10 -14 -2 -52 -7 -85 -10
-33 -3 -74 -7 -90 -9 -144 -18 -461 -26 -575 -15 -36 4 -94 10 -130 13 -36 3
-90 10 -120 15 -30 6 -70 13 -89 16 -19 3 -37 8 -41 10 -3 2 -18 6 -33 9 -14
2 -61 14 -104 26 -43 12 -85 23 -93 25 -34 8 -249 88 -339 126 -104 44 -244
118 -249 131 -2 4 -9 8 -16 8 -18 0 -185 129 -252 196 -72 72 -147 166 -198
250 -43 70 -116 236 -116 262 0 10 -4 22 -9 28 -6 5 -12 20 -14 34 -3 14 -10
43 -15 65 -6 22 -13 51 -16 65 -3 14 -7 34 -9 45 -9 44 -25 155 -32 235 -5 53
-5 331 0 375 1 17 6 57 9 90 12 106 15 118 60 285 6 23 59 144 66 150 3 3 16
25 29 50 14 25 28 47 31 50 4 3 13 16 20 30 12 22 126 178 139 190 3 3 35 43
71 90 69 91 69 91 126 160 152 186 177 214 369 405 259 260 390 359 540 409
109 37 223 45 600 40 586 -8 588 -8 627 5 52 17 107 77 168 180 74 125 157
209 234 237 31 11 140 11 199 0z"/>
<path d="M1487 3890 c-48 -12 -116 -46 -145 -74 -112 -102 -30 -268 145 -291
175 -24 267 12 322 125 25 51 26 69 7 114 -21 51 -53 82 -109 106 -56 25 -163
34 -220 20z"/>
<path d="M3225 3886 c-68 -19 -127 -60 -170 -118 -22 -30 -26 -95 -7 -133 18
-38 62 -85 79 -85 7 0 13 -3 13 -8 0 -4 19 -15 41 -25 30 -13 67 -18 130 -18
76 0 97 4 144 27 118 58 164 143 129 240 -11 29 -69 80 -122 104 -55 27 -174
35 -237 16z"/>
<path d="M1630 2620 c-59 -10 -138 -73 -148 -118 -19 -84 -2 -152 60 -239 18
-25 38 -52 43 -61 34 -52 252 -272 270 -272 2 0 23 -13 47 -29 89 -59 235
-107 363 -118 158 -13 355 0 407 28 10 5 18 7 18 5 0 -3 20 3 45 14 25 11 48
19 50 19 3 0 51 14 106 32 111 35 312 132 411 199 58 39 136 113 139 132 3 19
5 24 11 34 4 5 6 33 4 61 -3 64 -39 122 -98 157 -36 21 -53 24 -106 21 -54 -3
-76 -11 -165 -61 -164 -93 -241 -132 -267 -138 -48 -10 -66 -15 -190 -59 -117
-40 -131 -43 -220 -41 -114 2 -154 8 -223 32 -106 38 -160 84 -297 255 -49 62
-97 110 -121 122 -40 21 -100 32 -139 25z"/>
</g>
</svg>
